<svg width="50" height="50" viewBox="0 0 50 50" fill="none" xmlns="http://www.w3.org/2000/svg">
<g clip-path="url(#clip0_1203_2)">
<path d="M45.3126 31.3604C43.7844 36.1804 40.5865 40.2969 36.2942 42.9695C32.0019 45.6422 26.8967 46.6955 21.8971 45.9402C16.8974 45.1848 12.3313 42.6703 9.02014 38.8489C5.70893 35.0275 3.86991 30.15 3.83385 25.0937C3.79779 20.0375 5.56706 15.1342 8.82343 11.266C12.0798 7.39777 16.6095 4.81838 21.5979 3.99179C26.5863 3.1652 31.7059 4.14566 36.0359 6.75681C40.366 9.36795 43.6222 13.4384 45.219 18.2361L44.1645 18.5871C42.6513 14.0405 39.5654 10.183 35.462 7.70854C31.3586 5.23405 26.5069 4.3049 21.7796 5.08823C17.0523 5.87157 12.7596 8.31596 9.67367 11.9818C6.58772 15.6475 4.91105 20.2942 4.94522 25.0858C4.97939 29.8775 6.72217 34.4997 9.86008 38.1211C12.998 41.7425 17.3251 44.1254 22.0631 44.8413C26.8011 45.5571 31.6391 44.5588 35.7068 42.0261C39.7745 39.4933 42.805 35.5922 44.2532 31.0245L45.3126 31.3604Z" fill="url(#paint0_linear_1203_2)"/>
<path d="M25.125 5.88785C29.6757 5.91763 34.0664 7.57016 37.5074 10.5482C40.9484 13.5263 43.2139 17.6344 43.8964 22.1337C44.5789 26.633 43.6335 31.2282 41.2304 35.0927C38.8273 38.9572 35.1242 41.8375 30.787 43.2154C26.4499 44.5933 21.7634 44.3784 17.5705 42.6095C13.3777 40.8405 9.95359 37.6335 7.91416 33.5653C5.87473 29.4971 5.35382 24.8347 6.4451 20.4168C7.53638 15.9988 10.1683 12.1152 13.8673 9.46444L14.627 10.5245C11.1803 12.9944 8.72804 16.613 7.71122 20.7295C6.6944 24.846 7.17978 29.1903 9.08004 32.9808C10.9803 36.7714 14.1707 39.7596 18.0775 41.4079C21.9843 43.0561 26.351 43.2563 30.3921 41.9724C34.4333 40.6885 37.8838 38.0048 40.1229 34.404C42.362 30.8032 43.2429 26.5216 42.607 22.3293C41.9711 18.137 39.8602 14.3092 36.654 11.5344C33.4477 8.75952 29.3566 7.21974 25.1165 7.192L25.125 5.88785Z" fill="url(#paint1_linear_1203_2)"/>
<path d="M7.99201 24.3089C8.13929 20.2664 9.72414 16.4092 12.4615 13.431C15.1988 10.4527 18.909 8.54892 22.9247 8.06201C26.9404 7.5751 30.9981 8.53703 34.3679 10.7748C37.7377 13.0125 40.1984 16.3792 41.3076 20.2693C42.4167 24.1594 42.1013 28.3176 40.4183 31.996C38.7353 35.6743 35.795 38.6315 32.1263 40.3355C28.4576 42.0395 24.3012 42.3785 20.4049 41.2916C16.5085 40.2047 13.1278 37.7632 10.8709 34.4062L11.8329 33.7594C13.9359 36.8873 17.0859 39.1622 20.7164 40.175C24.3468 41.1877 28.2196 40.8718 31.6379 39.2841C35.0563 37.6963 37.7959 34.941 39.3641 31.5136C40.9323 28.0863 41.2261 24.2118 40.1927 20.5872C39.1593 16.9625 36.8664 13.8256 33.7266 11.7405C30.5868 9.65545 26.806 8.75917 23.0643 9.21285C19.3226 9.66654 15.8656 11.4404 13.315 14.2154C10.7644 16.9905 9.28774 20.5845 9.15051 24.3511L7.99201 24.3089Z" fill="url(#paint2_linear_1203_2)"/>
<path d="M49.3637 24.8998C49.3637 38.3406 38.4678 49.2365 25.027 49.2365C11.5863 49.2365 0.690369 38.3406 0.690369 24.8998C0.690369 11.4591 11.5863 0.563175 25.027 0.563175C38.4678 0.563175 49.3637 11.4591 49.3637 24.8998ZM3.14343 24.8998C3.14343 36.9858 12.941 46.7834 25.027 46.7834C37.113 46.7834 46.9106 36.9858 46.9106 24.8998C46.9106 12.8139 37.113 3.01623 25.027 3.01623C12.941 3.01623 3.14343 12.8139 3.14343 24.8998Z" fill="url(#paint3_linear_1203_2)"/>
</g>
<defs>
<linearGradient id="paint0_linear_1203_2" x1="10.6714" y1="9.43988" x2="29.3167" y2="44.7769" gradientUnits="userSpaceOnUse">
<stop stop-color="#1AEA32"/>
<stop offset="0.521283" stop-color="#20D0B3"/>
<stop offset="1" stop-color="#DAE017"/>
</linearGradient>
<linearGradient id="paint1_linear_1203_2" x1="17.1162" y1="42.3328" x2="40.001" y2="14.596" gradientUnits="userSpaceOnUse">
<stop stop-color="#EA391A"/>
<stop offset="0.521283" stop-color="#15E241"/>
<stop offset="1" stop-color="#2B17E0"/>
</linearGradient>
<linearGradient id="paint2_linear_1203_2" x1="40.1605" y1="32.3923" x2="16.1241" y2="11.3229" gradientUnits="userSpaceOnUse">
<stop stop-color="#82EA1A"/>
<stop offset="0.521283" stop-color="#A115E2"/>
<stop offset="1" stop-color="#E0C917"/>
</linearGradient>
<linearGradient id="paint3_linear_1203_2" x1="8.52677" y1="7.13407" x2="29.8944" y2="47.6303" gradientUnits="userSpaceOnUse">
<stop stop-color="#1AEA21"/>
<stop offset="0.567308" stop-color="#3B20D0"/>
<stop offset="1" stop-color="#E0DA17"/>
</linearGradient>
<clipPath id="clip0_1203_2">
<rect width="50" height="50" fill="white"/>
</clipPath>
</defs>
</svg>
