<svg xmlns="http://www.w3.org/2000/svg" version="1.1" xmlns:xlink="http://www.w3.org/1999/xlink" xmlns:svgjs="http://svgjs.dev/svgjs" viewBox="0 0 800 800" opacity="0.2" width="800" height="800"><g stroke-width="0.75" stroke="hsl(261, 60%, 38%)" fill="none"><rect width="5.7894736842105265" height="5.7894736842105265" x="-2.8947368421052633" y="-2.8947368421052633" fill="hsl(261, 60%, 38%)" stroke="none"></rect><rect width="5.7894736842105265" height="5.7894736842105265" x="77.10526315789474" y="-2.8947368421052633" fill="hsl(316, 73%, 52%)" stroke="none"></rect><rect width="5.7894736842105265" height="5.7894736842105265" x="157.10526315789474" y="-2.8947368421052633" fill="hsl(261, 60%, 38%)" stroke="none"></rect><rect width="5.7894736842105265" height="5.7894736842105265" x="237.10526315789474" y="-2.8947368421052633" fill="hsl(316, 73%, 52%)" stroke="none"></rect><rect width="5.7894736842105265" height="5.7894736842105265" x="317.10526315789474" y="-2.8947368421052633" fill="hsl(261, 60%, 38%)" stroke="none"></rect><rect width="5.7894736842105265" height="5.7894736842105265" x="397.10526315789474" y="-2.8947368421052633" fill="hsl(316, 73%, 52%)" stroke="none"></rect><rect width="5.7894736842105265" height="5.7894736842105265" x="477.10526315789474" y="-2.8947368421052633" fill="hsl(261, 60%, 38%)" stroke="none"></rect><rect width="5.7894736842105265" height="5.7894736842105265" x="557.1052631578947" y="-2.8947368421052633" fill="hsl(316, 73%, 52%)" stroke="none"></rect><rect width="5.7894736842105265" height="5.7894736842105265" x="637.1052631578947" y="-2.8947368421052633" fill="hsl(261, 60%, 38%)" stroke="none"></rect><rect width="5.7894736842105265" height="5.7894736842105265" x="717.1052631578947" y="-2.8947368421052633" fill="hsl(316, 73%, 52%)" stroke="none"></rect><rect width="5.7894736842105265" height="5.7894736842105265" x="797.1052631578947" y="-2.8947368421052633" fill="hsl(261, 60%, 38%)" stroke="none"></rect><rect width="5.7894736842105265" height="5.7894736842105265" x="-2.8947368421052633" y="77.10526315789474" fill="hsl(316, 73%, 52%)" stroke="none"></rect><rect width="5.7894736842105265" height="5.7894736842105265" x="77.10526315789474" y="77.10526315789474" fill="hsl(261, 60%, 38%)" stroke="none"></rect><rect width="5.7894736842105265" height="5.7894736842105265" x="157.10526315789474" y="77.10526315789474" fill="hsl(316, 73%, 52%)" stroke="none"></rect><rect width="5.7894736842105265" height="5.7894736842105265" x="237.10526315789474" y="77.10526315789474" fill="hsl(261, 60%, 38%)" stroke="none"></rect><rect width="5.7894736842105265" height="5.7894736842105265" x="317.10526315789474" y="77.10526315789474" fill="hsl(316, 73%, 52%)" stroke="none"></rect><rect width="5.7894736842105265" height="5.7894736842105265" x="397.10526315789474" y="77.10526315789474" fill="hsl(261, 60%, 38%)" stroke="none"></rect><rect width="5.7894736842105265" height="5.7894736842105265" x="477.10526315789474" y="77.10526315789474" fill="hsl(316, 73%, 52%)" stroke="none"></rect><rect width="5.7894736842105265" height="5.7894736842105265" x="557.1052631578947" y="77.10526315789474" fill="hsl(261, 60%, 38%)" stroke="none"></rect><rect width="5.7894736842105265" height="5.7894736842105265" x="637.1052631578947" y="77.10526315789474" fill="hsl(316, 73%, 52%)" stroke="none"></rect><rect width="5.7894736842105265" height="5.7894736842105265" x="717.1052631578947" y="77.10526315789474" fill="hsl(261, 60%, 38%)" stroke="none"></rect><rect width="5.7894736842105265" height="5.7894736842105265" x="797.1052631578947" y="77.10526315789474" fill="hsl(316, 73%, 52%)" stroke="none"></rect><rect width="5.7894736842105265" height="5.7894736842105265" x="-2.8947368421052633" y="157.10526315789474" fill="hsl(261, 60%, 38%)" stroke="none"></rect><rect width="5.7894736842105265" height="5.7894736842105265" x="77.10526315789474" y="157.10526315789474" fill="hsl(316, 73%, 52%)" stroke="none"></rect><rect width="5.7894736842105265" height="5.7894736842105265" x="157.10526315789474" y="157.10526315789474" fill="hsl(261, 60%, 38%)" stroke="none"></rect><rect width="5.7894736842105265" height="5.7894736842105265" x="237.10526315789474" y="157.10526315789474" fill="hsl(316, 73%, 52%)" stroke="none"></rect><rect width="5.7894736842105265" height="5.7894736842105265" x="317.10526315789474" y="157.10526315789474" fill="hsl(261, 60%, 38%)" stroke="none"></rect><rect width="5.7894736842105265" height="5.7894736842105265" x="397.10526315789474" y="157.10526315789474" fill="hsl(316, 73%, 52%)" stroke="none"></rect><rect width="5.7894736842105265" height="5.7894736842105265" x="477.10526315789474" y="157.10526315789474" fill="hsl(261, 60%, 38%)" stroke="none"></rect><rect width="5.7894736842105265" height="5.7894736842105265" x="557.1052631578947" y="157.10526315789474" fill="hsl(316, 73%, 52%)" stroke="none"></rect><rect width="5.7894736842105265" height="5.7894736842105265" x="637.1052631578947" y="157.10526315789474" fill="hsl(261, 60%, 38%)" stroke="none"></rect><rect width="5.7894736842105265" height="5.7894736842105265" x="717.1052631578947" y="157.10526315789474" fill="hsl(316, 73%, 52%)" stroke="none"></rect><rect width="5.7894736842105265" height="5.7894736842105265" x="797.1052631578947" y="157.10526315789474" fill="hsl(261, 60%, 38%)" stroke="none"></rect><rect width="5.7894736842105265" height="5.7894736842105265" x="-2.8947368421052633" y="237.10526315789474" fill="hsl(316, 73%, 52%)" stroke="none"></rect><rect width="5.7894736842105265" height="5.7894736842105265" x="77.10526315789474" y="237.10526315789474" fill="hsl(261, 60%, 38%)" stroke="none"></rect><rect width="5.7894736842105265" height="5.7894736842105265" x="157.10526315789474" y="237.10526315789474" fill="hsl(316, 73%, 52%)" stroke="none"></rect><rect width="5.7894736842105265" height="5.7894736842105265" x="237.10526315789474" y="237.10526315789474" fill="hsl(261, 60%, 38%)" stroke="none"></rect><rect width="5.7894736842105265" height="5.7894736842105265" x="317.10526315789474" y="237.10526315789474" fill="hsl(316, 73%, 52%)" stroke="none"></rect><rect width="5.7894736842105265" height="5.7894736842105265" x="397.10526315789474" y="237.10526315789474" fill="hsl(261, 60%, 38%)" stroke="none"></rect><rect width="5.7894736842105265" height="5.7894736842105265" x="477.10526315789474" y="237.10526315789474" fill="hsl(316, 73%, 52%)" stroke="none"></rect><rect width="5.7894736842105265" height="5.7894736842105265" x="557.1052631578947" y="237.10526315789474" fill="hsl(261, 60%, 38%)" stroke="none"></rect><rect width="5.7894736842105265" height="5.7894736842105265" x="637.1052631578947" y="237.10526315789474" fill="hsl(316, 73%, 52%)" stroke="none"></rect><rect width="5.7894736842105265" height="5.7894736842105265" x="717.1052631578947" y="237.10526315789474" fill="hsl(261, 60%, 38%)" stroke="none"></rect><rect width="5.7894736842105265" height="5.7894736842105265" x="797.1052631578947" y="237.10526315789474" fill="hsl(316, 73%, 52%)" stroke="none"></rect><rect width="5.7894736842105265" height="5.7894736842105265" x="-2.8947368421052633" y="317.10526315789474" fill="hsl(261, 60%, 38%)" stroke="none"></rect><rect width="5.7894736842105265" height="5.7894736842105265" x="77.10526315789474" y="317.10526315789474" fill="hsl(316, 73%, 52%)" stroke="none"></rect><rect width="5.7894736842105265" height="5.7894736842105265" x="157.10526315789474" y="317.10526315789474" fill="hsl(261, 60%, 38%)" stroke="none"></rect><rect width="5.7894736842105265" height="5.7894736842105265" x="237.10526315789474" y="317.10526315789474" fill="hsl(316, 73%, 52%)" stroke="none"></rect><rect width="5.7894736842105265" height="5.7894736842105265" x="317.10526315789474" y="317.10526315789474" fill="hsl(261, 60%, 38%)" stroke="none"></rect><rect width="5.7894736842105265" height="5.7894736842105265" x="397.10526315789474" y="317.10526315789474" fill="hsl(316, 73%, 52%)" stroke="none"></rect><rect width="5.7894736842105265" height="5.7894736842105265" x="477.10526315789474" y="317.10526315789474" fill="hsl(261, 60%, 38%)" stroke="none"></rect><rect width="5.7894736842105265" height="5.7894736842105265" x="557.1052631578947" y="317.10526315789474" fill="hsl(316, 73%, 52%)" stroke="none"></rect><rect width="5.7894736842105265" height="5.7894736842105265" x="637.1052631578947" y="317.10526315789474" fill="hsl(261, 60%, 38%)" stroke="none"></rect><rect width="5.7894736842105265" height="5.7894736842105265" x="717.1052631578947" y="317.10526315789474" fill="hsl(316, 73%, 52%)" stroke="none"></rect><rect width="5.7894736842105265" height="5.7894736842105265" x="797.1052631578947" y="317.10526315789474" fill="hsl(261, 60%, 38%)" stroke="none"></rect><rect width="5.7894736842105265" height="5.7894736842105265" x="-2.8947368421052633" y="397.10526315789474" fill="hsl(316, 73%, 52%)" stroke="none"></rect><rect width="5.7894736842105265" height="5.7894736842105265" x="77.10526315789474" y="397.10526315789474" fill="hsl(261, 60%, 38%)" stroke="none"></rect><rect width="5.7894736842105265" height="5.7894736842105265" x="157.10526315789474" y="397.10526315789474" fill="hsl(316, 73%, 52%)" stroke="none"></rect><rect width="5.7894736842105265" height="5.7894736842105265" x="237.10526315789474" y="397.10526315789474" fill="hsl(261, 60%, 38%)" stroke="none"></rect><rect width="5.7894736842105265" height="5.7894736842105265" x="317.10526315789474" y="397.10526315789474" fill="hsl(316, 73%, 52%)" stroke="none"></rect><rect width="5.7894736842105265" height="5.7894736842105265" x="397.10526315789474" y="397.10526315789474" fill="hsl(261, 60%, 38%)" stroke="none"></rect><rect width="5.7894736842105265" height="5.7894736842105265" x="477.10526315789474" y="397.10526315789474" fill="hsl(316, 73%, 52%)" stroke="none"></rect><rect width="5.7894736842105265" height="5.7894736842105265" x="557.1052631578947" y="397.10526315789474" fill="hsl(261, 60%, 38%)" stroke="none"></rect><rect width="5.7894736842105265" height="5.7894736842105265" x="637.1052631578947" y="397.10526315789474" fill="hsl(316, 73%, 52%)" stroke="none"></rect><rect width="5.7894736842105265" height="5.7894736842105265" x="717.1052631578947" y="397.10526315789474" fill="hsl(261, 60%, 38%)" stroke="none"></rect><rect width="5.7894736842105265" height="5.7894736842105265" x="797.1052631578947" y="397.10526315789474" fill="hsl(316, 73%, 52%)" stroke="none"></rect><rect width="5.7894736842105265" height="5.7894736842105265" x="-2.8947368421052633" y="477.10526315789474" fill="hsl(261, 60%, 38%)" stroke="none"></rect><rect width="5.7894736842105265" height="5.7894736842105265" x="77.10526315789474" y="477.10526315789474" fill="hsl(316, 73%, 52%)" stroke="none"></rect><rect width="5.7894736842105265" height="5.7894736842105265" x="157.10526315789474" y="477.10526315789474" fill="hsl(261, 60%, 38%)" stroke="none"></rect><rect width="5.7894736842105265" height="5.7894736842105265" x="237.10526315789474" y="477.10526315789474" fill="hsl(316, 73%, 52%)" stroke="none"></rect><rect width="5.7894736842105265" height="5.7894736842105265" x="317.10526315789474" y="477.10526315789474" fill="hsl(261, 60%, 38%)" stroke="none"></rect><rect width="5.7894736842105265" height="5.7894736842105265" x="397.10526315789474" y="477.10526315789474" fill="hsl(316, 73%, 52%)" stroke="none"></rect><rect width="5.7894736842105265" height="5.7894736842105265" x="477.10526315789474" y="477.10526315789474" fill="hsl(261, 60%, 38%)" stroke="none"></rect><rect width="5.7894736842105265" height="5.7894736842105265" x="557.1052631578947" y="477.10526315789474" fill="hsl(316, 73%, 52%)" stroke="none"></rect><rect width="5.7894736842105265" height="5.7894736842105265" x="637.1052631578947" y="477.10526315789474" fill="hsl(261, 60%, 38%)" stroke="none"></rect><rect width="5.7894736842105265" height="5.7894736842105265" x="717.1052631578947" y="477.10526315789474" fill="hsl(316, 73%, 52%)" stroke="none"></rect><rect width="5.7894736842105265" height="5.7894736842105265" x="797.1052631578947" y="477.10526315789474" fill="hsl(261, 60%, 38%)" stroke="none"></rect><rect width="5.7894736842105265" height="5.7894736842105265" x="-2.8947368421052633" y="557.1052631578947" fill="hsl(316, 73%, 52%)" stroke="none"></rect><rect width="5.7894736842105265" height="5.7894736842105265" x="77.10526315789474" y="557.1052631578947" fill="hsl(261, 60%, 38%)" stroke="none"></rect><rect width="5.7894736842105265" height="5.7894736842105265" x="157.10526315789474" y="557.1052631578947" fill="hsl(316, 73%, 52%)" stroke="none"></rect><rect width="5.7894736842105265" height="5.7894736842105265" x="237.10526315789474" y="557.1052631578947" fill="hsl(261, 60%, 38%)" stroke="none"></rect><rect width="5.7894736842105265" height="5.7894736842105265" x="317.10526315789474" y="557.1052631578947" fill="hsl(316, 73%, 52%)" stroke="none"></rect><rect width="5.7894736842105265" height="5.7894736842105265" x="397.10526315789474" y="557.1052631578947" fill="hsl(261, 60%, 38%)" stroke="none"></rect><rect width="5.7894736842105265" height="5.7894736842105265" x="477.10526315789474" y="557.1052631578947" fill="hsl(316, 73%, 52%)" stroke="none"></rect><rect width="5.7894736842105265" height="5.7894736842105265" x="557.1052631578947" y="557.1052631578947" fill="hsl(261, 60%, 38%)" stroke="none"></rect><rect width="5.7894736842105265" height="5.7894736842105265" x="637.1052631578947" y="557.1052631578947" fill="hsl(316, 73%, 52%)" stroke="none"></rect><rect width="5.7894736842105265" height="5.7894736842105265" x="717.1052631578947" y="557.1052631578947" fill="hsl(261, 60%, 38%)" stroke="none"></rect><rect width="5.7894736842105265" height="5.7894736842105265" x="797.1052631578947" y="557.1052631578947" fill="hsl(316, 73%, 52%)" stroke="none"></rect><rect width="5.7894736842105265" height="5.7894736842105265" x="-2.8947368421052633" y="637.1052631578947" fill="hsl(261, 60%, 38%)" stroke="none"></rect><rect width="5.7894736842105265" height="5.7894736842105265" x="77.10526315789474" y="637.1052631578947" fill="hsl(316, 73%, 52%)" stroke="none"></rect><rect width="5.7894736842105265" height="5.7894736842105265" x="157.10526315789474" y="637.1052631578947" fill="hsl(261, 60%, 38%)" stroke="none"></rect><rect width="5.7894736842105265" height="5.7894736842105265" x="237.10526315789474" y="637.1052631578947" fill="hsl(316, 73%, 52%)" stroke="none"></rect><rect width="5.7894736842105265" height="5.7894736842105265" x="317.10526315789474" y="637.1052631578947" fill="hsl(261, 60%, 38%)" stroke="none"></rect><rect width="5.7894736842105265" height="5.7894736842105265" x="397.10526315789474" y="637.1052631578947" fill="hsl(316, 73%, 52%)" stroke="none"></rect><rect width="5.7894736842105265" height="5.7894736842105265" x="477.10526315789474" y="637.1052631578947" fill="hsl(261, 60%, 38%)" stroke="none"></rect><rect width="5.7894736842105265" height="5.7894736842105265" x="557.1052631578947" y="637.1052631578947" fill="hsl(316, 73%, 52%)" stroke="none"></rect><rect width="5.7894736842105265" height="5.7894736842105265" x="637.1052631578947" y="637.1052631578947" fill="hsl(261, 60%, 38%)" stroke="none"></rect><rect width="5.7894736842105265" height="5.7894736842105265" x="717.1052631578947" y="637.1052631578947" fill="hsl(316, 73%, 52%)" stroke="none"></rect><rect width="5.7894736842105265" height="5.7894736842105265" x="797.1052631578947" y="637.1052631578947" fill="hsl(261, 60%, 38%)" stroke="none"></rect><rect width="5.7894736842105265" height="5.7894736842105265" x="-2.8947368421052633" y="717.1052631578947" fill="hsl(316, 73%, 52%)" stroke="none"></rect><rect width="5.7894736842105265" height="5.7894736842105265" x="77.10526315789474" y="717.1052631578947" fill="hsl(261, 60%, 38%)" stroke="none"></rect><rect width="5.7894736842105265" height="5.7894736842105265" x="157.10526315789474" y="717.1052631578947" fill="hsl(316, 73%, 52%)" stroke="none"></rect><rect width="5.7894736842105265" height="5.7894736842105265" x="237.10526315789474" y="717.1052631578947" fill="hsl(261, 60%, 38%)" stroke="none"></rect><rect width="5.7894736842105265" height="5.7894736842105265" x="317.10526315789474" y="717.1052631578947" fill="hsl(316, 73%, 52%)" stroke="none"></rect><rect width="5.7894736842105265" height="5.7894736842105265" x="397.10526315789474" y="717.1052631578947" fill="hsl(261, 60%, 38%)" stroke="none"></rect><rect width="5.7894736842105265" height="5.7894736842105265" x="477.10526315789474" y="717.1052631578947" fill="hsl(316, 73%, 52%)" stroke="none"></rect><rect width="5.7894736842105265" height="5.7894736842105265" x="557.1052631578947" y="717.1052631578947" fill="hsl(261, 60%, 38%)" stroke="none"></rect><rect width="5.7894736842105265" height="5.7894736842105265" x="637.1052631578947" y="717.1052631578947" fill="hsl(316, 73%, 52%)" stroke="none"></rect><rect width="5.7894736842105265" height="5.7894736842105265" x="717.1052631578947" y="717.1052631578947" fill="hsl(261, 60%, 38%)" stroke="none"></rect><rect width="5.7894736842105265" height="5.7894736842105265" x="797.1052631578947" y="717.1052631578947" fill="hsl(316, 73%, 52%)" stroke="none"></rect><rect width="5.7894736842105265" height="5.7894736842105265" x="-2.8947368421052633" y="797.1052631578947" fill="hsl(261, 60%, 38%)" stroke="none"></rect><rect width="5.7894736842105265" height="5.7894736842105265" x="77.10526315789474" y="797.1052631578947" fill="hsl(316, 73%, 52%)" stroke="none"></rect><rect width="5.7894736842105265" height="5.7894736842105265" x="157.10526315789474" y="797.1052631578947" fill="hsl(261, 60%, 38%)" stroke="none"></rect><rect width="5.7894736842105265" height="5.7894736842105265" x="237.10526315789474" y="797.1052631578947" fill="hsl(316, 73%, 52%)" stroke="none"></rect><rect width="5.7894736842105265" height="5.7894736842105265" x="317.10526315789474" y="797.1052631578947" fill="hsl(261, 60%, 38%)" stroke="none"></rect><rect width="5.7894736842105265" height="5.7894736842105265" x="397.10526315789474" y="797.1052631578947" fill="hsl(316, 73%, 52%)" stroke="none"></rect><rect width="5.7894736842105265" height="5.7894736842105265" x="477.10526315789474" y="797.1052631578947" fill="hsl(261, 60%, 38%)" stroke="none"></rect><rect width="5.7894736842105265" height="5.7894736842105265" x="557.1052631578947" y="797.1052631578947" fill="hsl(316, 73%, 52%)" stroke="none"></rect><rect width="5.7894736842105265" height="5.7894736842105265" x="637.1052631578947" y="797.1052631578947" fill="hsl(261, 60%, 38%)" stroke="none"></rect><rect width="5.7894736842105265" height="5.7894736842105265" x="717.1052631578947" y="797.1052631578947" fill="hsl(316, 73%, 52%)" stroke="none"></rect><rect width="5.7894736842105265" height="5.7894736842105265" x="797.1052631578947" y="797.1052631578947" fill="hsl(261, 60%, 38%)" stroke="none"></rect></g></svg>